<svg width="159" height="34" viewBox="0 0 159 34" fill="none" xmlns="http://www.w3.org/2000/svg">
<path d="M14.7958 22.1331C14.7958 22.1328 3.61735 22.1328 3.61735 22.1328C3.67413 21.1242 3.35891 19.9519 3.00046 19.0798C1.86454 16.3162 -0.474409 13.8142 0.085144 10.5588C0.396027 8.75032 1.85658 7.49088 3.64375 7.34764C6.83848 7.09065 9.59484 8.79934 12.6934 9.34659C12.9411 9.39018 13.2748 8.86227 13.5757 8.56097C12.1387 7.47786 12.3342 5.35467 13.9977 4.43775C14.1123 4.30609 14.0704 3.08336 14.0049 3.02838C13.8694 2.91535 12.8082 3.11862 12.6575 2.98769C12.5073 2.85657 12.5367 1.5832 12.6333 1.46112C12.7299 1.33941 13.926 1.46998 13.9933 1.38824C14.0606 1.30595 13.9595 0.160442 14.0725 0.0701972C14.1856 -0.0200475 14.7958 0.00255892 14.7958 0.00255892H14.5444C14.5444 0.00255892 15.1535 -0.0202283 15.2667 0.0701972C15.3794 0.160623 15.2786 1.30595 15.3464 1.38824C15.4139 1.46998 16.6099 1.33941 16.7063 1.46112C16.8027 1.58338 16.8329 2.85675 16.6822 2.98769C16.5317 3.11844 15.4705 2.91535 15.335 3.02838C15.269 3.08336 15.2274 4.30609 15.3419 4.43775C17.0059 5.35448 17.2012 7.47786 15.7638 8.56097C16.0648 8.86227 16.3979 9.39 16.6462 9.34659C19.7451 8.79934 22.5011 7.09047 25.6953 7.34764C27.483 7.49088 28.9437 8.75032 29.2544 10.5588C29.814 13.8142 27.4752 16.316 26.3398 19.0798C25.981 19.9519 25.6656 21.1242 25.7224 22.1328C25.7224 22.1328 14.5444 22.1328 14.5444 22.1331M20.7396 15.3917C20.7396 15.3917 22.0189 15.1998 22.1123 15.3829C22.2059 15.5659 21.6802 16.6457 21.7699 16.8297C21.8598 17.014 23.5542 16.6683 23.5838 16.859C23.6139 17.0498 23.4864 18.0007 23.3243 18.1412C23.1617 18.2821 21.5802 18.2918 21.5802 18.2918C21.2507 18.5425 21.165 19.0521 21.163 19.5741C21.1606 20.2358 21.6755 20.5778 22.4971 20.3483C24.0287 19.9202 25.9268 16.5976 27.0533 14.2977C27.8816 12.6066 28.3811 9.84031 26.2076 9.01165C24.8822 8.50654 23.4918 8.79282 22.0665 9.21565C20.5729 9.6591 18.6025 10.2592 17.4414 10.98C17.1566 11.1567 17.7805 11.0158 16.7502 13.2993C16.2715 14.3616 15.7906 16.6239 15.9914 17.7663C16.2782 19.4005 17.1861 20.4385 17.9417 20.4432C18.4372 20.4454 18.8349 20.2582 19.196 19.9421C19.6934 19.5066 20.0996 18.7906 19.9692 18.3673C19.8589 18.2251 18.5184 18.4293 18.4231 18.296C18.3281 18.1627 18.586 17.1192 18.7383 16.9839C18.8893 16.8492 20.0994 17.0291 20.2614 16.8966C20.4235 16.7651 20.5734 15.4709 20.7396 15.3917ZM8.60015 15.3917C8.766 15.4709 8.91592 16.7651 9.07832 16.8968C9.24037 17.0291 10.4499 16.8494 10.6016 16.9841C10.7534 17.1194 11.0116 18.1631 10.9165 18.2962C10.821 18.4293 9.48072 18.2253 9.37022 18.3674C9.24019 18.7908 9.64584 19.507 10.1434 19.9423C10.5049 20.2584 10.902 20.4456 11.3979 20.4434C12.1533 20.4387 13.0612 19.4005 13.3484 17.7665C13.5488 16.624 13.0683 14.3618 12.589 13.2995C11.5592 11.016 12.183 11.1567 11.8983 10.9802C10.7369 10.2592 8.7669 9.65928 7.27325 9.21584C5.84778 8.79301 4.4574 8.50672 3.1323 9.01184C0.958474 9.84049 1.45835 12.6066 2.28592 14.2979C3.4128 16.5976 5.3112 19.9202 6.84282 20.3485C7.66425 20.578 8.17913 20.236 8.1766 19.5743C8.17497 19.0523 8.08889 18.5427 7.75974 18.292C7.75974 18.292 6.17784 18.2821 6.01543 18.1414C5.85321 18.0009 5.72607 17.0499 5.75555 16.8591C5.78539 16.6685 7.48032 17.0141 7.56967 16.8298C7.65973 16.6457 7.134 15.5661 7.22768 15.383C7.32045 15.2 8.60015 15.3917 8.60015 15.3917Z" fill="#004AA9"/>
<path d="M14.7958 23.645H3.3689V25.5638H14.7958" fill="#004AA9"/>
<path d="M14.5444 23.645H25.9715V25.5638H14.5444" fill="#004AA9"/>
<path d="M40.0862 23.1499C37.9158 21.2446 37.3396 18.7644 37.3396 16.6157C37.3396 15.1092 37.8047 12.4961 39.931 10.5469C41.5256 9.0849 43.63 8.19891 46.9301 8.19891C48.3035 8.19891 49.1229 8.28735 50.1419 8.42082C50.9834 8.53132 51.6923 8.73043 52.3566 8.79717C52.6005 8.81923 52.6888 8.92991 52.6888 9.06284C52.6888 9.23989 52.6224 9.50574 52.5783 10.2812C52.534 11.0122 52.5557 12.2301 52.5119 12.6732C52.4895 13.0052 52.4455 13.1826 52.2459 13.1826C52.0688 13.1826 52.0243 13.0052 52.0243 12.6952C52.0023 12.0084 51.7144 11.2334 51.1608 10.6576C50.4298 9.88228 48.7021 9.28438 46.6645 9.28438C44.7375 9.28438 43.4748 9.77141 42.5 10.6576C40.8834 12.1415 40.4622 14.2458 40.4622 16.3944C40.4622 21.6651 44.4713 24.2793 47.4394 24.2793C49.4107 24.2793 50.6068 24.0576 51.493 23.0383C51.8694 22.6185 52.1573 21.9761 52.2459 21.5772C52.3124 21.2227 52.3564 21.1339 52.534 21.1339C52.6886 21.1339 52.7335 21.2895 52.7335 21.4661C52.7335 21.7318 52.4676 23.6586 52.2459 24.4124C52.1352 24.7886 52.0464 24.8992 51.6699 25.0544C50.7839 25.4089 49.1009 25.5639 47.6832 25.5639C44.6489 25.5641 42.1016 24.8994 40.0862 23.1499Z" fill="#004AA9" stroke="#004AA9" stroke-width="0.171628"/>
<path d="M55.5237 18.2379C55.5237 15.0689 57.6179 10.9735 63.1778 10.9735C67.7924 10.9735 70.6649 13.6606 70.6649 17.9043C70.6649 22.1481 67.6997 25.5025 62.9925 25.5025C57.6736 25.5027 55.5237 21.5184 55.5237 18.2379ZM68.0706 18.5906C68.0706 14.439 65.6799 11.8631 62.6405 11.8631C60.5092 11.8631 58.0815 13.0495 58.0815 17.6639C58.0815 21.5184 60.2131 24.5764 63.771 24.5764C65.0681 24.5764 68.0706 23.946 68.0706 18.5906Z" fill="#004AA9" stroke="#004AA9" stroke-width="0.171628"/>
<path d="M77.3035 19.8692C77.3035 22.2418 77.3035 23.5201 77.693 23.8534C78.0081 24.1317 78.4897 24.2615 79.9354 24.2615C80.9176 24.2615 81.6403 24.2433 82.1036 23.7425C82.3263 23.5016 82.5483 22.9833 82.5856 22.6305C82.6044 22.4641 82.6409 22.3523 82.7894 22.3523C82.9193 22.3523 82.9375 22.4445 82.9375 22.6679C82.9375 22.8713 82.8079 24.2615 82.6594 24.7992C82.5483 25.2067 82.4559 25.2995 81.4922 25.2995C78.8235 25.2995 77.6004 25.1882 76.0994 25.1882C75.6729 25.1882 74.5052 25.2441 73.7639 25.2441C73.523 25.2441 73.3933 25.1882 73.3933 25.0591C73.3933 24.966 73.4675 24.911 73.6901 24.911C73.9677 24.911 74.1901 24.8734 74.3567 24.8361C74.7276 24.7621 74.8202 24.3547 74.8946 23.8174C74.987 23.0392 74.987 21.5748 74.987 19.8696V16.6079C74.987 13.7906 74.987 13.2716 74.9499 12.6791C74.9132 12.0483 74.7649 11.7523 74.1532 11.6224C74.0048 11.5853 73.7827 11.5667 73.5416 11.5667C73.338 11.5667 73.2266 11.5296 73.2266 11.4001C73.2266 11.2705 73.3564 11.2334 73.6346 11.2334C74.5052 11.2334 75.6729 11.2889 76.1732 11.2889C76.6181 11.2889 77.971 11.2334 78.6937 11.2334C78.953 11.2334 79.0829 11.2705 79.0829 11.4001C79.0829 11.5296 78.9718 11.5667 78.7494 11.5667C78.5456 11.5667 78.2488 11.5853 78.0269 11.6224C77.5263 11.715 77.378 12.03 77.3411 12.6791C77.3037 13.2714 77.3037 13.7906 77.3037 16.6079V19.8692H77.3035Z" fill="#004AA9" stroke="#004AA9" stroke-width="0.171628"/>
<path d="M86.5087 16.6081C86.5087 13.7908 86.5087 13.2718 86.4713 12.6793C86.4344 12.0485 86.2863 11.7524 85.6744 11.6226C85.5263 11.5855 85.2111 11.5669 84.9516 11.5669C84.7479 11.5669 84.6367 11.5298 84.6367 11.4003C84.6367 11.2707 84.7662 11.2336 85.0444 11.2336C86.0266 11.2336 87.1941 11.2891 87.7499 11.2891C88.1946 11.2891 89.3624 11.2336 90.0293 11.2336C90.3073 11.2336 90.437 11.2707 90.437 11.4003C90.437 11.5298 90.3259 11.5669 90.1407 11.5669C89.9367 11.5669 89.8255 11.5855 89.6033 11.6226C89.1027 11.7152 88.9547 12.0302 88.9176 12.6793C88.8802 13.2716 88.8802 13.7908 88.8802 16.6081V19.2021C88.8802 21.8897 89.4175 23.02 90.3258 23.761C91.1597 24.4467 92.0124 24.5209 92.6425 24.5209C93.4579 24.5209 94.4586 24.2615 95.1997 23.5201C96.2192 22.5017 96.275 20.8328 96.275 18.9246V16.6079C96.275 13.7906 96.275 13.2716 96.238 12.6791C96.2009 12.0483 96.0524 11.7523 95.4409 11.6224C95.2925 11.5853 94.9776 11.5667 94.7736 11.5667C94.57 11.5667 94.4586 11.5296 94.4586 11.4001C94.4586 11.2705 94.5886 11.2334 94.8476 11.2334C95.7929 11.2334 96.9606 11.2889 96.9791 11.2889C97.2014 11.2889 98.3691 11.2334 99.0918 11.2334C99.3513 11.2334 99.481 11.2705 99.481 11.4001C99.481 11.5296 99.3698 11.5667 99.1477 11.5667C98.9433 11.5667 98.8321 11.5853 98.61 11.6224C98.1094 11.715 97.9615 12.03 97.924 12.6791C97.887 13.2714 97.887 13.7906 97.887 16.6079V18.591C97.887 20.6481 97.6831 22.8341 96.1267 24.1693C94.8109 25.2995 93.4764 25.5031 92.2719 25.5031C91.2897 25.5031 89.5107 25.4476 88.1577 24.2245C87.2128 23.3718 86.5085 22.0005 86.5085 19.3135V16.6081H86.5087Z" fill="#004AA9" stroke="#004AA9" stroke-width="0.171628"/>
<path d="M103.93 11.3077C103.986 10.9927 104.097 10.8256 104.246 10.8256C104.394 10.8256 104.505 10.9185 104.746 11.4005L109.805 21.853L114.846 11.2708C114.976 10.9742 115.087 10.8257 115.254 10.8257C115.421 10.8257 115.532 11.0115 115.587 11.4007L117.274 22.8536C117.441 24.0206 117.626 24.5581 118.182 24.7258C118.719 24.8922 119.09 24.9111 119.331 24.9111C119.498 24.9111 119.628 24.9294 119.628 25.0406C119.628 25.1886 119.405 25.2445 119.146 25.2445C118.683 25.2445 116.125 25.1886 115.384 25.1332C114.958 25.0962 114.846 25.0406 114.846 24.9294C114.846 24.8363 114.92 24.7806 115.05 24.7258C115.161 24.6882 115.217 24.4473 115.143 23.9282L114.031 15.7736H113.957L109.917 24.1881C109.49 25.0593 109.398 25.2256 109.231 25.2256C109.064 25.2256 108.879 24.8551 108.582 24.2993C108.138 23.4466 106.674 20.6109 106.451 20.0924C106.285 19.7028 105.172 17.3684 104.524 15.9782H104.449L103.486 23.354C103.449 23.6873 103.43 23.9282 103.43 24.2248C103.43 24.5771 103.671 24.7439 103.986 24.818C104.32 24.892 104.579 24.9111 104.765 24.9111C104.913 24.9111 105.042 24.9477 105.042 25.0406C105.042 25.2072 104.876 25.2445 104.598 25.2445C103.819 25.2445 102.986 25.1886 102.652 25.1886C102.3 25.1886 101.41 25.2445 100.817 25.2445C100.632 25.2445 100.484 25.2072 100.484 25.0406C100.484 24.9477 100.595 24.9111 100.78 24.9111C100.929 24.9111 101.058 24.9111 101.336 24.8551C101.855 24.7439 102.003 24.0205 102.096 23.3911L103.93 11.3077Z" fill="#004AA9" stroke="#004AA9" stroke-width="0.171628"/>
<path d="M123.704 16.6082C123.704 13.7909 123.704 13.2718 123.667 12.6794C123.63 12.0486 123.482 11.7525 122.87 11.6227C122.723 11.5856 122.407 11.567 122.148 11.567C121.944 11.567 121.833 11.5299 121.833 11.4004C121.833 11.2707 121.962 11.2336 122.24 11.2336C123.222 11.2336 124.39 11.2892 124.76 11.2892C125.668 11.2892 126.391 11.2336 127.022 11.2336C130.376 11.2336 130.969 13.0311 130.969 14.0133C130.969 15.5332 130.098 16.4411 129.078 17.2567C130.598 17.7754 132.451 19.0909 132.451 21.2589C132.451 23.2423 130.913 25.2995 127.503 25.2995C127.059 25.2995 125.372 25.1883 124.816 25.1883C124.39 25.1883 123.222 25.2442 122.481 25.2442C122.24 25.2442 122.11 25.1883 122.11 25.0592C122.11 24.966 122.184 24.911 122.407 24.911C122.685 24.911 122.907 24.8734 123.074 24.8362C123.444 24.7622 123.537 24.3547 123.611 23.8174C123.704 23.0392 123.704 21.5749 123.704 19.8696V16.6082H123.704ZM125.928 16.9232C125.928 17.071 125.984 17.1082 126.058 17.1269C126.225 17.1634 126.503 17.1824 126.929 17.1824C127.541 17.1824 127.948 17.1082 128.263 16.8304C128.745 16.4411 129.023 15.7734 129.023 14.866C129.023 13.6243 128.3 11.9936 126.707 11.9936C126.447 11.9936 126.28 11.9936 126.095 12.0307C125.965 12.0677 125.928 12.1417 125.928 12.3459V16.9232H125.928ZM128.375 18.4058C127.986 18.1271 127.559 17.9977 126.836 17.9609C126.503 17.942 126.318 17.942 126.04 17.942C125.965 17.942 125.928 17.9796 125.928 18.0723V22.4645C125.928 23.6872 125.984 24.0023 126.577 24.2439C127.077 24.4472 127.503 24.4654 127.93 24.4654C128.764 24.4654 130.172 24.0205 130.172 22.0937C130.172 20.9448 129.783 19.388 128.375 18.4058Z" fill="#004AA9" stroke="#004AA9" stroke-width="0.171628"/>
<path d="M136.565 16.6082C136.565 13.7909 136.565 13.2718 136.528 12.6794C136.491 12.0486 136.306 11.7337 135.898 11.6411C135.694 11.5856 135.453 11.567 135.231 11.567C135.045 11.567 134.934 11.5299 134.934 11.3816C134.934 11.2707 135.083 11.2336 135.379 11.2336C136.083 11.2336 137.251 11.2892 137.788 11.2892C138.251 11.2892 139.345 11.2336 140.049 11.2336C140.29 11.2336 140.438 11.2707 140.438 11.3816C140.438 11.5299 140.327 11.567 140.142 11.567C139.956 11.567 139.809 11.5856 139.586 11.6227C139.085 11.7152 138.937 12.0303 138.9 12.6794C138.863 13.2717 138.863 13.7909 138.863 16.6082V19.8695C138.863 21.6669 138.863 23.1315 138.937 23.9278C138.992 24.4287 139.123 24.7618 139.678 24.8358C139.938 24.8731 140.346 24.9107 140.623 24.9107C140.827 24.9107 140.92 24.9658 140.92 25.0588C140.92 25.1881 140.772 25.2438 140.568 25.2438C139.345 25.2438 138.177 25.1879 137.677 25.1879C137.251 25.1879 136.083 25.2438 135.342 25.2438C135.101 25.2438 134.971 25.1879 134.971 25.0588C134.971 24.9657 135.045 24.9107 135.267 24.9107C135.546 24.9107 135.768 24.8731 135.935 24.8358C136.305 24.7618 136.417 24.4468 136.472 23.9095C136.565 23.1313 136.565 21.6669 136.565 19.8693V16.6082H136.565Z" fill="#004AA9" stroke="#004AA9" stroke-width="0.171628"/>
<path d="M147.843 20.4064C147.75 20.4064 147.712 20.4433 147.676 20.5545L146.675 23.2047C146.489 23.668 146.396 24.1127 146.396 24.3352C146.396 24.6687 146.564 24.9101 147.138 24.9101H147.416C147.638 24.9101 147.694 24.9466 147.694 25.0582C147.694 25.206 147.583 25.2432 147.38 25.2432C146.786 25.2432 145.99 25.1874 145.414 25.1874C145.211 25.1874 144.192 25.2432 143.228 25.2432C142.987 25.2432 142.875 25.206 142.875 25.0582C142.875 24.9466 142.95 24.9101 143.098 24.9101C143.265 24.9101 143.524 24.8911 143.672 24.8725C144.525 24.7613 144.877 24.1312 145.248 23.2047L149.899 11.5662C150.122 11.0289 150.233 10.8247 150.419 10.8247C150.585 10.8247 150.696 10.9918 150.882 11.4181C151.326 12.4374 154.292 19.9986 155.478 22.8153C156.182 24.4838 156.72 24.7428 157.109 24.8352C157.387 24.8911 157.665 24.9101 157.887 24.9101C158.035 24.9101 158.128 24.9284 158.128 25.0582C158.128 25.206 157.961 25.2432 157.276 25.2432C156.608 25.2432 155.255 25.2432 153.772 25.206C153.439 25.1874 153.217 25.1874 153.217 25.0582C153.217 24.9466 153.292 24.9101 153.477 24.8909C153.607 24.854 153.737 24.6869 153.644 24.4643L152.161 20.5357C152.124 20.4431 152.068 20.4062 151.976 20.4062H147.843V20.4064ZM151.623 19.4801C151.716 19.4801 151.734 19.4238 151.716 19.3687L150.048 14.791C150.029 14.7172 150.01 14.6242 149.955 14.6242C149.899 14.6242 149.862 14.7172 149.845 14.791L148.139 19.35C148.12 19.4238 148.139 19.4801 148.213 19.4801H151.623Z" fill="#004AA9" stroke="#004AA9" stroke-width="0.171628"/>
</svg>
