<svg width="188" height="33" viewBox="0 0 188 33" fill="none" xmlns="http://www.w3.org/2000/svg">
<g clip-path="url(#clip0_50_2569)">
<mask id="mask0_50_2569" style="mask-type:luminance" maskUnits="userSpaceOnUse" x="0" y="0" width="29" height="29">
<path d="M28.4694 0H0V28.6193H28.4694V0Z" fill="white"/>
</mask>
<g mask="url(#mask0_50_2569)">
<path fill-rule="evenodd" clip-rule="evenodd" d="M7.11736 14.3096C11.0482 14.3096 14.2347 11.1063 14.2347 7.15482C14.2347 11.1063 17.4213 14.3096 21.3521 14.3096C17.4213 14.3096 14.2347 17.513 14.2347 21.4645C14.2347 17.513 11.0482 14.3096 7.11736 14.3096ZM7.11736 14.3096C3.18656 14.3096 0 17.513 0 21.4645C0 25.4159 3.18656 28.6193 7.11736 28.6193C11.0482 28.6193 14.2347 25.4159 14.2347 21.4645C14.2347 25.4159 17.4213 28.6193 21.3521 28.6193C25.2829 28.6193 28.4694 25.4159 28.4694 21.4645C28.4694 17.513 25.2829 14.3096 21.3521 14.3096C25.2829 14.3096 28.4694 11.1063 28.4694 7.15482C28.4694 3.20333 25.2829 0 21.3521 0C17.4213 0 14.2347 3.20333 14.2347 7.15482C14.2347 3.20333 11.0482 0 7.11736 0C3.18656 0 0 3.20333 0 7.15482C0 11.1063 3.18656 14.3096 7.11736 14.3096Z" fill="#066DF2"/>
</g>
</g>
<path d="M42.6807 25.9069V5.66114H35.9629V3.44727H52.0985V5.66114H45.3807V25.9069H42.6807Z" fill="#F6F6F6"/>
<path d="M58.8718 26.2919C57.3932 26.2919 56.0539 25.9496 54.8539 25.2651C53.6754 24.5807 52.7432 23.6181 52.0575 22.3775C51.3718 21.1155 51.029 19.6396 51.029 17.9497C51.029 16.2813 51.3504 14.8268 51.9932 13.5862C52.6575 12.3241 53.5789 11.3509 54.7575 10.6664C55.9575 9.96055 57.3503 9.60761 58.936 9.60761C60.436 9.60761 61.7432 9.93916 62.8574 10.6022C63.9717 11.2653 64.8396 12.1637 65.461 13.2974C66.1038 14.4097 66.4253 15.661 66.4253 17.0514C66.4253 17.3508 66.4253 17.5861 66.4253 17.7572C66.4253 17.9284 66.4146 18.1957 66.3931 18.5594H53.6968C53.7611 19.6075 54.0075 20.5486 54.4361 21.3828C54.8861 22.1957 55.4861 22.8374 56.2361 23.308C57.0075 23.7785 57.8861 24.0138 58.8718 24.0138C59.986 24.0138 60.9182 23.7571 61.6682 23.2438C62.4182 22.7304 62.9646 22.0352 63.3074 21.1583H65.9753C65.6967 22.1422 65.236 23.0192 64.5931 23.7892C63.9503 24.5593 63.1467 25.1689 62.1824 25.6181C61.2396 26.0673 60.136 26.2919 58.8718 26.2919ZM53.7289 16.4738H63.7574C63.6931 15.0407 63.2003 13.9177 62.2789 13.1049C61.3575 12.2921 60.2217 11.8857 58.8718 11.8857C57.5861 11.8857 56.4396 12.2814 55.4325 13.0728C54.4468 13.8428 53.8789 14.9765 53.7289 16.4738Z" fill="#F6F6F6"/>
<path d="M69.361 32.9656V9.99263H71.8039L72.061 12.6236C72.5753 11.8536 73.3039 11.1584 74.2467 10.5381C75.211 9.91777 76.4324 9.60761 77.911 9.60761C79.5181 9.60761 80.9109 9.97124 82.0895 10.6985C83.2681 11.4258 84.1788 12.4204 84.8216 13.6824C85.4645 14.9444 85.7859 16.3776 85.7859 17.9818C85.7859 19.5647 85.4645 20.9871 84.8216 22.2491C84.1788 23.5112 83.2573 24.5058 82.0574 25.2331C80.8788 25.9389 79.486 26.2919 77.8788 26.2919C76.5717 26.2919 75.4038 26.0245 74.3753 25.4897C73.3681 24.955 72.5967 24.2063 72.061 23.2438V32.9656H69.361ZM77.5895 23.9497C78.6824 23.9497 79.636 23.7037 80.4502 23.2117C81.2645 22.6983 81.8966 21.9925 82.3466 21.0941C82.8181 20.1743 83.0538 19.1262 83.0538 17.9497C83.0538 16.8161 82.8288 15.8 82.3788 14.9017C81.9502 13.9819 81.3288 13.2653 80.5145 12.752C79.7002 12.2172 78.7252 11.9498 77.5895 11.9498C76.5181 11.9498 75.5646 12.2065 74.7288 12.7199C73.9146 13.2118 73.2717 13.907 72.8003 14.8054C72.3503 15.7038 72.1253 16.7519 72.1253 17.9497C72.1253 19.062 72.3503 20.0781 72.8003 20.9978C73.2503 21.8962 73.8824 22.6128 74.6967 23.1475C75.511 23.6823 76.4753 23.9497 77.5895 23.9497Z" fill="#F6F6F6"/>
<path d="M96.2621 26.2919C94.805 26.2919 93.4657 25.971 92.2443 25.3293C91.0229 24.6662 90.0479 23.7144 89.3193 22.4737C88.5908 21.2117 88.2265 19.693 88.2265 17.9177C88.2265 16.2278 88.58 14.7626 89.2872 13.522C90.0157 12.2814 90.9907 11.3188 92.2122 10.6343C93.455 9.94985 94.8479 9.60761 96.3907 9.60761C97.8693 9.60761 99.2192 9.92846 100.441 10.5702C101.684 11.2119 102.68 12.153 103.43 13.3937C104.18 14.6343 104.555 16.1423 104.555 17.9177C104.555 19.5433 104.201 20.9871 103.494 22.2491C102.787 23.5112 101.801 24.5058 100.537 25.2331C99.2942 25.9389 97.8693 26.2919 96.2621 26.2919ZM96.2621 23.9497C97.3121 23.9497 98.255 23.7037 99.0907 23.2117C99.9264 22.6983 100.591 21.9925 101.084 21.0941C101.576 20.1957 101.823 19.1369 101.823 17.9177C101.823 16.7626 101.609 15.7359 101.18 14.8375C100.751 13.9391 100.13 13.2332 99.3157 12.7199C98.5014 12.2065 97.5157 11.9498 96.3585 11.9498C95.18 11.9498 94.1836 12.2172 93.3693 12.752C92.5764 13.2867 91.9764 14.0033 91.5693 14.9017C91.1622 15.8 90.9586 16.8054 90.9586 17.9177C90.9586 19.3294 91.2157 20.4845 91.73 21.3828C92.2443 22.2598 92.9086 22.9122 93.7229 23.34C94.5371 23.7465 95.3836 23.9497 96.2621 23.9497Z" fill="#F6F6F6"/>
<path d="M107.657 25.9069V3.44727H110.357V25.9069H107.657Z" fill="#F6F6F6"/>
<path d="M121.307 26.2919C119.829 26.2919 118.49 25.9496 117.29 25.2651C116.111 24.5807 115.179 23.6181 114.493 22.3775C113.808 21.1155 113.465 19.6396 113.465 17.9497C113.465 16.2813 113.786 14.8268 114.429 13.5862C115.093 12.3241 116.015 11.3509 117.193 10.6664C118.393 9.96055 119.786 9.60761 121.372 9.60761C122.872 9.60761 124.179 9.93916 125.293 10.6022C126.407 11.2653 127.275 12.1637 127.897 13.2974C128.54 14.4097 128.861 15.661 128.861 17.0514C128.861 17.3508 128.861 17.5861 128.861 17.7572C128.861 17.9284 128.85 18.1957 128.829 18.5594H116.133C116.197 19.6075 116.443 20.5486 116.872 21.3828C117.322 22.1957 117.922 22.8374 118.672 23.308C119.443 23.7785 120.322 24.0138 121.307 24.0138C122.422 24.0138 123.354 23.7571 124.104 23.2438C124.854 22.7304 125.4 22.0352 125.743 21.1583H128.411C128.132 22.1422 127.672 23.0192 127.029 23.7892C126.386 24.5593 125.582 25.1689 124.618 25.6181C123.675 26.0673 122.572 26.2919 121.307 26.2919ZM116.165 16.4738H126.193C126.129 15.0407 125.636 13.9177 124.715 13.1049C123.793 12.2921 122.657 11.8857 121.307 11.8857C120.022 11.8857 118.875 12.2814 117.868 13.0728C116.882 13.8428 116.315 14.9765 116.165 16.4738Z" fill="#F6F6F6"/>
<path d="M138.401 25.9069V3.44727H142.515V22.4096H152.222V25.9069H138.401Z" fill="#F6F6F6"/>
<path d="M158.607 26.2919C157.664 26.2919 156.785 26.0994 155.971 25.7143C155.157 25.3293 154.492 24.7839 153.978 24.078C153.485 23.3507 153.239 22.4951 153.239 21.5112C153.239 20.3347 153.528 19.3722 154.107 18.6235C154.685 17.8749 155.478 17.3187 156.485 16.9551C157.514 16.5915 158.66 16.4097 159.925 16.4097H163.717C163.717 15.6824 163.599 15.0728 163.364 14.5808C163.149 14.0888 162.817 13.7145 162.367 13.4578C161.939 13.1798 161.403 13.0407 160.76 13.0407C160.01 13.0407 159.335 13.2118 158.735 13.5541C158.157 13.8749 157.803 14.4204 157.675 15.1904H153.56C153.667 14.0354 154.064 13.0407 154.75 12.2065C155.435 11.3723 156.314 10.7306 157.385 10.2814C158.457 9.83221 159.603 9.60761 160.825 9.60761C162.325 9.60761 163.589 9.88568 164.617 10.4418C165.667 10.998 166.471 11.7894 167.028 12.8161C167.585 13.8215 167.864 15.0193 167.864 16.4097V21.2545C167.907 21.7251 168.078 22.0459 168.378 22.2171C168.678 22.3882 169.074 22.4737 169.567 22.4737V25.9069C168.56 25.9069 167.714 25.8106 167.028 25.6181C166.364 25.4256 165.817 25.1475 165.389 24.7839C164.96 24.3989 164.596 23.9176 164.296 23.34C163.803 24.1743 163.032 24.8801 161.982 25.4577C160.953 26.0138 159.828 26.2919 158.607 26.2919ZM159.796 22.9871C160.503 22.9871 161.146 22.8267 161.725 22.5058C162.324 22.185 162.807 21.7358 163.171 21.1583C163.535 20.5807 163.717 19.9176 163.717 19.169V19.0406H160.182C159.71 19.0406 159.26 19.1155 158.832 19.2652C158.403 19.3936 158.06 19.6075 157.803 19.9069C157.546 20.185 157.417 20.57 157.417 21.062C157.417 21.7251 157.642 22.2171 158.092 22.5379C158.564 22.8374 159.132 22.9871 159.796 22.9871Z" fill="#F6F6F6"/>
<path d="M180.357 26.2919C179.286 26.2919 178.279 26.0887 177.336 25.6823C176.414 25.2545 175.643 24.6021 175.021 23.7251V25.9069H170.907V3.44727H174.989V12.2386C175.589 11.3616 176.361 10.7092 177.304 10.2814C178.246 9.83221 179.264 9.60761 180.357 9.60761C181.879 9.60761 183.186 9.98194 184.279 10.7306C185.393 11.4579 186.25 12.4525 186.85 13.7145C187.45 14.9551 187.75 16.3455 187.75 17.8856C187.75 19.4043 187.45 20.8053 186.85 22.0887C186.25 23.3721 185.393 24.3989 184.279 25.1689C183.186 25.9175 181.879 26.2919 180.357 26.2919ZM179.264 22.6983C180.121 22.6983 180.871 22.4844 181.514 22.0566C182.157 21.6288 182.661 21.0513 183.025 20.324C183.389 19.5754 183.571 18.7626 183.571 17.8856C183.571 16.8802 183.368 16.0353 182.961 15.3508C182.575 14.645 182.05 14.1102 181.386 13.7466C180.743 13.383 180.036 13.2011 179.264 13.2011C178.429 13.2011 177.689 13.4043 177.046 13.8108C176.425 14.2172 175.932 14.784 175.568 15.5113C175.204 16.2171 175.021 17.03 175.021 17.9497C175.021 18.8909 175.204 19.7251 175.568 20.4524C175.954 21.1583 176.468 21.7144 177.111 22.1208C177.754 22.5058 178.471 22.6983 179.264 22.6983Z" fill="#F6F6F6"/>
<defs>
<clipPath id="clip0_50_2569">
<rect width="28.4694" height="28.6193" fill="white"/>
</clipPath>
</defs>
</svg>
