<svg width="148" height="26" viewBox="0 0 148 26" fill="none" xmlns="http://www.w3.org/2000/svg">
<g clip-path="url(#clip0_391_9873)">
<mask id="mask0_391_9873" style="mask-type:luminance" maskUnits="userSpaceOnUse" x="0" y="0" width="23" height="23">
<path d="M22.442 0H0V22.5602H22.442V0Z" fill="white"/>
</mask>
<g mask="url(#mask0_391_9873)">
<path fill-rule="evenodd" clip-rule="evenodd" d="M5.61051 11.2801C8.70911 11.2801 11.221 8.75494 11.221 5.64004C11.221 8.75494 13.733 11.2801 16.8315 11.2801C13.733 11.2801 11.221 13.8052 11.221 16.9201C11.221 13.8052 8.70911 11.2801 5.61051 11.2801ZM5.61051 11.2801C2.51192 11.2801 0 13.8052 0 16.9201C0 20.035 2.51192 22.5602 5.61051 22.5602C8.70911 22.5602 11.221 20.035 11.221 16.9201C11.221 20.035 13.733 22.5602 16.8315 22.5602C19.9301 22.5602 22.442 20.035 22.442 16.9201C22.442 13.8052 19.9301 11.2801 16.8315 11.2801C19.9301 11.2801 22.442 8.75494 22.442 5.64004C22.442 2.52514 19.9301 0 16.8315 0C13.733 0 11.221 2.52514 11.221 5.64004C11.221 2.52514 8.70911 0 5.61051 0C2.51192 0 0 2.52514 0 5.64004C0 8.75494 2.51192 11.2801 5.61051 11.2801Z" fill="#066DF2"/>
</g>
</g>
<path d="M33.6439 20.4221V4.46269H28.3484V2.71753H41.0678V4.46269H35.7723V20.4221H33.6439Z" fill="#0A0B0D"/>
<path d="M46.4071 20.7256C45.2416 20.7256 44.1859 20.4558 43.2399 19.9163C42.3109 19.3767 41.5761 18.6179 41.0356 17.6399C40.495 16.6451 40.2248 15.4817 40.2248 14.1496C40.2248 12.8344 40.4781 11.6878 40.9849 10.7099C41.5085 9.71505 42.2349 8.94785 43.1639 8.40828C44.1098 7.85185 45.2078 7.57364 46.4578 7.57364C47.6402 7.57364 48.6706 7.83499 49.549 8.3577C50.4273 8.8804 51.1115 9.58859 51.6013 10.4822C52.1081 11.359 52.3614 12.3454 52.3614 13.4414C52.3614 13.6775 52.3614 13.863 52.3614 13.9979C52.3614 14.1328 52.353 14.3435 52.3361 14.6302H42.3278C42.3785 15.4564 42.5727 16.1983 42.9105 16.8559C43.2653 17.4966 43.7382 18.0025 44.3294 18.3734C44.9375 18.7444 45.6301 18.9299 46.4071 18.9299C47.2855 18.9299 48.0203 18.7275 48.6115 18.3228C49.2027 17.9182 49.6334 17.3702 49.9037 16.6788H52.0067C51.7871 17.4545 51.424 18.1458 50.9172 18.7528C50.4104 19.3598 49.777 19.8404 49.0169 20.1945C48.2737 20.5486 47.4037 20.7256 46.4071 20.7256ZM42.3531 12.9862H50.2584C50.2077 11.8565 49.8192 10.9712 49.0929 10.3305C48.3666 9.68976 47.4713 9.36939 46.4071 9.36939C45.3936 9.36939 44.4899 9.68133 43.696 10.3052C42.919 10.9122 42.4714 11.8059 42.3531 12.9862Z" fill="#0A0B0D"/>
<path d="M54.6757 25.9864V7.87715H56.6013L56.804 9.95111C57.2094 9.34409 57.7837 8.7961 58.527 8.30711C59.2871 7.81813 60.2499 7.57364 61.4154 7.57364C62.6823 7.57364 63.7803 7.86028 64.7093 8.43357C65.6384 9.00687 66.3563 9.79093 66.863 10.7858C67.3698 11.7806 67.6231 12.9103 67.6231 14.1749C67.6231 15.4227 67.3698 16.544 66.863 17.5388C66.3563 18.5336 65.6299 19.3177 64.684 19.891C63.7549 20.4474 62.657 20.7256 61.3901 20.7256C60.3597 20.7256 59.4391 20.5148 58.6283 20.0933C57.8344 19.6718 57.2263 19.0816 56.804 18.3228V25.9864H54.6757ZM61.1621 18.8793C62.0235 18.8793 62.7752 18.6854 63.4171 18.2975C64.059 17.8929 64.5573 17.3364 64.912 16.6283C65.2836 15.9032 65.4695 15.077 65.4695 14.1496C65.4695 13.256 65.2921 12.455 64.9374 11.7469C64.5995 11.0218 64.1097 10.457 63.4678 10.0523C62.8259 9.63074 62.0573 9.41997 61.1621 9.41997C60.3175 9.41997 59.5658 9.62231 58.907 10.027C58.2651 10.4148 57.7584 10.9628 57.3868 11.671C57.0321 12.3792 56.8547 13.2054 56.8547 14.1496C56.8547 15.0264 57.0321 15.8273 57.3868 16.5524C57.7415 17.2606 58.2398 17.8254 58.8817 18.247C59.5236 18.6685 60.2837 18.8793 61.1621 18.8793Z" fill="#0A0B0D"/>
<path d="M75.8814 20.7256C74.7328 20.7256 73.677 20.4727 72.7142 19.9668C71.7514 19.4441 70.9828 18.6938 70.4085 17.7158C69.8342 16.721 69.547 15.5238 69.547 14.1243C69.547 12.7923 69.8257 11.6373 70.3832 10.6593C70.9575 9.68132 71.726 8.92256 72.6889 8.38299C73.6686 7.84342 74.7665 7.57364 75.9827 7.57364C77.1483 7.57364 78.2124 7.82656 79.1753 8.33241C80.155 8.83825 80.9405 9.58016 81.5317 10.5581C82.1229 11.5361 82.4185 12.7248 82.4185 14.1243C82.4185 15.4058 82.1398 16.544 81.5823 17.5388C81.0249 18.5336 80.2479 19.3177 79.2513 19.891C78.2716 20.4474 77.1483 20.7256 75.8814 20.7256ZM75.8814 18.8793C76.7091 18.8793 77.4523 18.6854 78.1111 18.2975C78.7699 17.8929 79.2935 17.3364 79.682 16.6283C80.0705 15.9201 80.2648 15.0854 80.2648 14.1243C80.2648 13.2138 80.0959 12.4045 79.758 11.6963C79.4202 10.9881 78.9303 10.4317 78.2885 10.027C77.6466 9.62231 76.8696 9.41997 75.9574 9.41997C75.0284 9.41997 74.2429 9.63074 73.601 10.0523C72.976 10.4738 72.5031 11.0387 72.1821 11.7469C71.8612 12.455 71.7007 13.2475 71.7007 14.1243C71.7007 15.2372 71.9034 16.1477 72.3088 16.8559C72.7142 17.5472 73.2378 18.0615 73.8797 18.3987C74.5216 18.7191 75.1888 18.8793 75.8814 18.8793Z" fill="#0A0B0D"/>
<path d="M84.8639 20.4221V2.71753H86.9923V20.4221H84.8639Z" fill="#0A0B0D"/>
<path d="M95.6243 20.7256C94.4587 20.7256 93.403 20.4558 92.4571 19.9163C91.528 19.3767 90.7933 18.6179 90.2527 17.6399C89.7122 16.6451 89.4419 15.4817 89.4419 14.1496C89.4419 12.8344 89.6953 11.6878 90.202 10.7099C90.7257 9.71505 91.452 8.94785 92.3811 8.40828C93.327 7.85185 94.425 7.57364 95.6749 7.57364C96.8574 7.57364 97.8878 7.83499 98.7661 8.3577C99.6445 8.8804 100.329 9.58859 100.818 10.4822C101.325 11.359 101.579 12.3454 101.579 13.4414C101.579 13.6775 101.579 13.863 101.579 13.9979C101.579 14.1328 101.57 14.3435 101.553 14.6302H91.5449C91.5956 15.4564 91.7899 16.1983 92.1277 16.8559C92.4824 17.4966 92.9554 18.0025 93.5466 18.3734C94.1547 18.7444 94.8473 18.9299 95.6243 18.9299C96.5026 18.9299 97.2374 18.7275 97.8286 18.3228C98.4198 17.9182 98.8506 17.3702 99.1208 16.6788H101.224C101.004 17.4545 100.641 18.1458 100.134 18.7528C99.6276 19.3598 98.9942 19.8404 98.234 20.1945C97.4908 20.5486 96.6209 20.7256 95.6243 20.7256ZM91.5703 12.9862H99.4756C99.4249 11.8565 99.0364 10.9712 98.3101 10.3305C97.5837 9.68976 96.6884 9.36939 95.6243 9.36939C94.6108 9.36939 93.7071 9.68133 92.9132 10.3052C92.1361 10.9122 91.6885 11.8059 91.5703 12.9862Z" fill="#0A0B0D"/>
<path d="M109.099 20.4221V2.71753H112.342V17.6652H119.994V20.4221H109.099Z" fill="#0A0B0D"/>
<path d="M125.027 20.7256C124.283 20.7256 123.591 20.5738 122.949 20.2703C122.307 19.9668 121.783 19.5369 121.378 18.9804C120.99 18.4071 120.795 17.7327 120.795 16.9571C120.795 16.0297 121.023 15.2709 121.479 14.6808C121.936 14.0906 122.561 13.6522 123.354 13.3656C124.165 13.0789 125.069 12.9356 126.066 12.9356H129.055C129.055 12.3623 128.962 11.8818 128.777 11.4939C128.608 11.1061 128.346 10.811 127.991 10.6087C127.653 10.3895 127.231 10.2799 126.724 10.2799C126.133 10.2799 125.601 10.4148 125.128 10.6846C124.672 10.9375 124.393 11.3675 124.292 11.9745H121.049C121.133 11.064 121.446 10.2799 121.986 9.62231C122.527 8.96471 123.219 8.45887 124.064 8.10478C124.908 7.75068 125.812 7.57364 126.775 7.57364C127.957 7.57364 128.954 7.79284 129.765 8.23124C130.593 8.66964 131.226 9.29351 131.665 10.1029C132.104 10.8954 132.324 11.8396 132.324 12.9356V16.7547C132.358 17.1257 132.493 17.3786 132.729 17.5135C132.966 17.6484 133.278 17.7158 133.667 17.7158V20.4221C132.873 20.4221 132.206 20.3462 131.665 20.1945C131.141 20.0427 130.711 19.8235 130.373 19.5369C130.035 19.2334 129.748 18.854 129.511 18.3987C129.123 19.0563 128.515 19.6127 127.687 20.068C126.876 20.5064 125.99 20.7256 125.027 20.7256ZM125.964 18.1205C126.522 18.1205 127.028 17.994 127.484 17.7411C127.957 17.4882 128.337 17.1341 128.625 16.6788C128.912 16.2236 129.055 15.7009 129.055 15.1107V15.0096H126.268C125.897 15.0096 125.542 15.0686 125.204 15.1866C124.866 15.2878 124.596 15.4564 124.393 15.6924C124.191 15.9116 124.089 16.2152 124.089 16.603C124.089 17.1257 124.267 17.5135 124.621 17.7664C124.993 18.0025 125.441 18.1205 125.964 18.1205Z" fill="#0A0B0D"/>
<path d="M142.172 20.7256C141.328 20.7256 140.534 20.5654 139.791 20.245C139.064 19.9078 138.456 19.3935 137.966 18.7022V20.4221H134.723V2.71753H137.941V9.6476C138.414 8.95628 139.022 8.44201 139.765 8.10478C140.508 7.75068 141.311 7.57364 142.172 7.57364C143.372 7.57364 144.402 7.86871 145.263 8.45887C146.142 9.03216 146.817 9.81622 147.29 10.811C147.763 11.789 148 12.885 148 14.099C148 15.2962 147.763 16.4006 147.29 17.4123C146.817 18.424 146.142 19.2334 145.263 19.8404C144.402 20.4305 143.372 20.7256 142.172 20.7256ZM141.311 17.8929C141.986 17.8929 142.578 17.7243 143.084 17.387C143.591 17.0498 143.988 16.5945 144.275 16.0212C144.562 15.4311 144.706 14.7904 144.706 14.099C144.706 13.3065 144.546 12.6405 144.225 12.1009C143.921 11.5445 143.507 11.123 142.983 10.8363C142.476 10.5497 141.919 10.4064 141.311 10.4064C140.652 10.4064 140.069 10.5666 139.563 10.8869C139.073 11.2073 138.684 11.6541 138.397 12.2274C138.11 12.7838 137.966 13.4246 137.966 14.1496C137.966 14.8915 138.11 15.5491 138.397 16.1224C138.701 16.6788 139.106 17.1172 139.613 17.4376C140.12 17.7411 140.686 17.8929 141.311 17.8929Z" fill="#0A0B0D"/>
<defs>
<clipPath id="clip0_391_9873">
<rect width="22.442" height="22.5602" fill="white"/>
</clipPath>
</defs>
</svg>
